<svg xmlns="http://www.w3.org/2000/svg" viewBox="0 0 100 100" fill="none">
  <defs>
    <linearGradient id="grad" x1="0%" y1="0%" x2="100%" y2="100%">
      <stop offset="0%" style="stop-color:#3b82f6;stop-opacity:1" />
      <stop offset="100%" style="stop-color:#8b5cf6;stop-opacity:1" />
    </linearGradient>
  </defs>
  <rect width="100" height="100" rx="20" fill="url(#grad)"/>
  <rect x="20" y="25" width="60" height="55" rx="5" fill="white" opacity="0.9"/>
  <rect x="25" y="15" width="8" height="15" rx="2" fill="white"/>
  <rect x="67" y="15" width="8" height="15" rx="2" fill="white"/>
  <line x1="20" y1="38" x2="80" y2="38" stroke="url(#grad)" stroke-width="2"/>
  <rect x="27" y="45" width="8" height="6" rx="1" fill="url(#grad)"/>
  <rect x="40" y="45" width="8" height="6" rx="1" fill="url(#grad)"/>
  <rect x="53" y="45" width="8" height="6" rx="1" fill="url(#grad)"/>
  <rect x="66" y="45" width="8" height="6" rx="1" fill="url(#grad)"/>
  <rect x="27" y="56" width="8" height="6" rx="1" fill="url(#grad)"/>
  <rect x="40" y="56" width="8" height="6" rx="1" fill="url(#grad)"/>
  <rect x="53" y="56" width="8" height="6" rx="1" fill="url(#grad)"/>
  <rect x="66" y="56" width="8" height="6" rx="1" fill="url(#grad)"/>
  <rect x="27" y="67" width="8" height="6" rx="1" fill="url(#grad)"/>
  <rect x="40" y="67" width="8" height="6" rx="1" fill="url(#grad)"/>
</svg>
